<svg width="1080" height="1080" version="1.1" xmlns="http://www.w3.org/2000/svg" desc="Created with imagetracer.js version 1.2.6" ><path fill="rgb(0,0,0)" stroke="rgb(0,0,0)" stroke-width="1" opacity="0" d="M 0 0 L 1080 0 L 1080 1080 L 0 1080 L 0 0 Z M 699 403 L 696 407 L 619 608 L 632 608 L 655 549 L 656 547 L 733 547 L 756 608 L 783 608 L 705 406 L 705 403 L 699 403 Z M 326 407 L 326 608 L 351 608 L 351 608 L 351 511 L 397 511 L 409 517 L 415 527 L 429 608 L 455 608 L 446 562 L 445 551 L 443 545 L 443 540 Q 440 527 433 519 Q 423 507 405 505 Q 425 502 437 491 Q 448 482 451 465 Q 453 452 450 444 L 441 428 L 425 415 L 415 411 L 402 408 Q 396 410 395 407 L 326 407 Z M 479 407 L 551 608 L 552 609 L 563 609 L 636 408 L 623 407 L 565 567 Q 566 570 563 569 L 505 410 L 505 407 L 479 407 Z M 530 686 L 521 689 L 519 693 L 519 721 L 520 723 L 527 727 Q 535 728 541 726 L 545 721 L 545 706 L 532 706 L 532 711 L 539 711 L 539 718 Q 537 723 529 721 L 525 718 L 524 714 Q 522 701 526 695 L 531 692 Q 537 692 539 696 L 539 699 L 545 699 L 544 692 Q 540 685 530 686 Z M 359 687 L 359 727 L 360 727 L 365 727 L 366 696 L 374 726 L 374 727 L 378 727 L 386 699 L 387 699 L 387 727 L 388 727 L 393 727 L 393 688 L 393 687 L 385 687 L 377 714 L 376 715 L 368 689 L 367 687 L 359 687 Z M 415 687 L 405 724 Q 403 729 410 727 L 413 719 L 414 717 L 424 717 L 426 726 Q 427 728 432 727 L 432 723 L 422 689 L 422 687 L 415 687 Z M 444 687 L 444 727 L 445 727 L 450 727 L 451 702 L 461 726 Q 463 729 468 727 L 468 688 L 468 687 L 462 687 L 462 711 L 451 689 L 451 687 L 444 687 Z M 490 687 L 480 724 Q 478 729 485 727 L 488 719 L 489 717 L 499 717 L 501 726 Q 502 728 507 727 L 507 723 L 497 689 L 497 687 L 490 687 Z M 559 687 L 559 727 L 580 727 L 580 721 L 565 721 L 565 709 L 577 709 L 577 704 L 567 704 L 565 703 L 565 694 L 567 692 L 580 692 L 580 687 L 559 687 Z M 592 687 L 592 727 L 593 727 L 598 727 L 599 696 L 607 726 L 607 727 L 611 727 L 619 699 L 620 699 L 620 727 L 621 727 L 626 727 L 626 688 L 626 687 L 618 687 L 610 714 L 609 715 L 601 689 L 600 687 L 592 687 Z M 641 687 L 641 727 L 662 727 L 662 721 L 647 721 L 647 709 L 659 709 L 659 704 L 649 704 L 647 703 L 647 694 L 649 692 L 662 692 L 662 687 L 641 687 Z M 674 687 L 674 727 L 675 727 L 680 727 L 681 702 L 691 726 Q 693 729 698 727 L 698 688 L 698 687 L 692 687 L 692 711 L 681 689 L 681 687 L 674 687 Z M 710 687 L 710 692 L 720 692 L 720 693 L 720 727 L 726 727 L 726 727 L 726 692 L 736 692 L 736 687 L 710 687 Z " /><path fill="rgb(0,0,0)" stroke="rgb(0,0,0)" stroke-width="1" opacity="0" d="M 351 418 L 383.5 418 L 384.5 419 L 398.5 420 Q 412 423.5 419 433.5 Q 426.5 443.5 425 462.5 Q 421.9 480.4 410.5 490 Q 402.4 496.9 389.5 499 L 351 499 L 351 418 Z " /><path fill="rgb(0,0,0)" stroke="rgb(0,0,0)" stroke-width="1" opacity="0" d="M 693 447 Q 696 445.8 695 449.5 L 728 534.5 L 660 535 L 693 447 Z " /><path fill="rgb(0,0,0)" stroke="rgb(0,0,0)" stroke-width="1" opacity="0" d="M 418.5 697 L 423 711.5 L 415 712 L 418.5 697 Z " /><path fill="rgb(0,0,0)" stroke="rgb(0,0,0)" stroke-width="1" opacity="0" d="M 493.5 697 L 498 711.5 L 490 712 L 493.5 697 Z " /><path fill="rgb(0,0,0)" stroke="rgb(0,0,0)" stroke-width="1" opacity="0.9803921568627451" d="M 698.5 403 L 705 403 L 705 405.5 L 783 607.5 L 756 608 L 733 547 L 655.5 547 L 655 548.5 L 632 608 L 619 607.5 L 696 406.5 L 698.5 403 Z M 693 447 L 660 535 L 728 535 L 695 450 Q 696 446 693 447 Z " /><path fill="rgb(0,0,0)" stroke="rgb(0,0,0)" stroke-width="1" opacity="0.9803921568627451" d="M 326 407 L 394.5 407 Q 396 409.5 401.5 408 L 414.5 411 L 424.5 415 L 441 427.5 L 450 443.5 Q 452.7 451.8 451 464.5 Q 447.9 481.9 436.5 491 Q 424.7 501.7 405 504.5 Q 423.5 507 433 518.5 Q 440.5 526.5 443 539.5 L 443 544.5 L 445 550.5 L 446 561.5 L 455 607.5 L 429 608 L 415 526.5 L 408.5 517 L 396.5 511 L 351 511 L 351 607.5 L 350.5 608 L 326 608 L 326 407 Z M 351 418 L 351 499 L 390 499 Q 402 497 411 490 Q 422 480 425 463 Q 427 443 419 434 Q 412 424 399 420 L 385 419 L 384 418 L 351 418 Z " /><path fill="rgb(0,0,0)" stroke="rgb(0,0,0)" stroke-width="1" opacity="0.9803921568627451" d="M 478.5 407 L 504.5 407 L 505 409.5 L 563 569 Q 566 570.3 565 566.5 L 623 407 L 636 407.5 L 563 609 L 551.5 609 L 551 607.5 L 478.5 407 Z " /><path fill="rgb(0,0,0)" stroke="rgb(0,0,0)" stroke-width="1" opacity="0.9803921568627451" d="M 529.5 686 Q 540.3 685.3 544 691.5 L 545 699 L 539 699 L 539 695.5 Q 536.9 691.6 530.5 692 L 526 694.5 Q 522.4 701.4 524 713.5 L 525 717.5 L 528.5 721 Q 537.3 722.8 539 717.5 L 539 711 L 532 711 L 532 706 L 545 706 L 545 720.5 L 540.5 726 Q 535.4 728.4 526.5 727 L 520 722.5 L 519 720.5 L 519 692.5 L 521 689 L 529.5 686 Z " /><path fill="rgb(0,0,0)" stroke="rgb(0,0,0)" stroke-width="1" opacity="0.9803921568627451" d="M 359 687 L 366.5 687 L 368 688.5 L 375.5 715 L 377 713.5 L 385 687 L 392.5 687 L 393 687.5 L 393 727 L 387.5 727 L 387 726.5 L 387 698.5 L 386 698.5 L 378 727 L 374 727 L 374 725.5 L 365.5 696 L 365 727 L 359.5 727 L 359 726.5 L 359 687 Z " /><path fill="rgb(0,0,0)" stroke="rgb(0,0,0)" stroke-width="1" opacity="0.9803921568627451" d="M 415 687 L 421.5 687 L 422 688.5 L 432 722.5 L 432 727 Q 427.4 728.3 426 725.5 L 424 717 L 413.5 717 L 413 718.5 L 409.5 727 Q 403.2 729.2 405 723.5 L 415 687 Z M 419 697 L 415 712 L 423 712 L 419 697 Z " /><path fill="rgb(0,0,0)" stroke="rgb(0,0,0)" stroke-width="1" opacity="0.9803921568627451" d="M 444 687 L 450.5 687 L 451 688.5 L 461.5 711 L 462 687 L 467.5 687 L 468 687.5 L 468 727 Q 462.6 728.5 461 725.5 L 450.5 702 L 450 727 L 444.5 727 L 444 726.5 L 444 687 Z " /><path fill="rgb(0,0,0)" stroke="rgb(0,0,0)" stroke-width="1" opacity="0.9803921568627451" d="M 490 687 L 496.5 687 L 497 688.5 L 507 722.5 L 507 727 Q 502.4 728.3 501 725.5 L 499 717 L 488.5 717 L 488 718.5 L 484.5 727 Q 478.2 729.2 480 723.5 L 490 687 Z M 494 697 L 490 712 L 498 712 L 494 697 Z " /><path fill="rgb(0,0,0)" stroke="rgb(0,0,0)" stroke-width="1" opacity="0.9803921568627451" d="M 559 687 L 579.5 687 L 580 692 L 566.5 692 L 565 693.5 L 565 702.5 L 566.5 704 L 577 704 L 577 709 L 565 709 L 565 721 L 580 721 L 580 727 L 559 727 L 559 687 Z " /><path fill="rgb(0,0,0)" stroke="rgb(0,0,0)" stroke-width="1" opacity="0.9803921568627451" d="M 592 687 L 599.5 687 L 601 688.5 L 608.5 715 L 610 713.5 L 618 687 L 625.5 687 L 626 687.5 L 626 727 L 620.5 727 L 620 726.5 L 620 698.5 L 619 698.5 L 611 727 L 607 727 L 607 725.5 L 598.5 696 L 598 727 L 592.5 727 L 592 726.5 L 592 687 Z " /><path fill="rgb(0,0,0)" stroke="rgb(0,0,0)" stroke-width="1" opacity="0.9803921568627451" d="M 641 687 L 661.5 687 L 662 692 L 648.5 692 L 647 693.5 L 647 702.5 L 648.5 704 L 659 704 L 659 709 L 647 709 L 647 721 L 662 721 L 662 727 L 641 727 L 641 687 Z " /><path fill="rgb(0,0,0)" stroke="rgb(0,0,0)" stroke-width="1" opacity="0.9803921568627451" d="M 674 687 L 680.5 687 L 681 688.5 L 691.5 711 L 692 687 L 697.5 687 L 698 687.5 L 698 727 Q 692.6 728.5 691 725.5 L 680.5 702 L 680 727 L 674.5 727 L 674 726.5 L 674 687 Z " /><path fill="rgb(0,0,0)" stroke="rgb(0,0,0)" stroke-width="1" opacity="0.9803921568627451" d="M 710 687 L 735.5 687 L 736 692 L 726 692 L 726 726.5 L 725.5 727 L 720 727 L 720 692.5 L 719.5 692 L 710 692 L 710 687 Z " /></svg>